<svg xmlns="http://www.w3.org/2000/svg" xmlns:xlink="http://www.w3.org/1999/xlink" width="1920" zoomAndPan="magnify" viewBox="0 0 1440 809.999993" height="1080" preserveAspectRatio="xMidYMid meet" version="1.0"><defs><g/><clipPath id="54aefbbf09"><path d="M 47.210938 377 L 252 377 L 252 553.9375 L 47.210938 553.9375 Z M 47.210938 377 " clip-rule="nonzero"/></clipPath><clipPath id="523817ae45"><path d="M 149 203.6875 L 456 203.6875 L 456 553.9375 L 149 553.9375 Z M 149 203.6875 " clip-rule="nonzero"/></clipPath><clipPath id="3c47ce2416"><path d="M 353.390625 203.6875 L 660.324219 203.6875 L 660.324219 553.9375 L 353.390625 553.9375 Z M 353.390625 203.6875 " clip-rule="nonzero"/></clipPath></defs><g clip-path="url(#54aefbbf09)"><path fill="#86c7ed" d="M 200.492188 377.035156 L 98.371094 377.035156 L 47.210938 465.65625 L 98.371094 554.09375 L 200.492188 554.09375 L 251.644531 465.65625 L 200.492188 377.035156 " fill-opacity="1" fill-rule="nonzero"/></g><g clip-path="url(#523817ae45)"><path fill="#a066cb" d="M 423.738281 409.753906 L 423.753906 409.746094 L 420.304688 403.78125 L 404.929688 377.035156 L 404.855469 377.035156 L 336.082031 257.976562 L 336.066406 257.992188 L 302.613281 200.164062 L 200.492188 200.164062 L 149.332031 288.597656 L 183.761719 348.121094 L 183.757812 348.121094 L 268.035156 494.105469 L 302.613281 554.09375 L 404.929688 554.09375 L 455.890625 465.65625 L 423.738281 409.753906 " fill-opacity="1" fill-rule="nonzero"/></g><g clip-path="url(#3c47ce2416)"><path fill="#1836b2" d="M 625.574219 405.453125 L 625.714844 405.371094 L 538.234375 253.601562 L 538.035156 253.726562 L 507.050781 200.164062 L 404.929688 200.164062 L 353.769531 288.597656 L 404.929688 377.035156 L 404.957031 377.035156 L 456.046875 465.398438 L 455.890625 465.65625 L 507.050781 554.09375 L 609.171875 554.09375 L 660.324219 465.65625 L 625.574219 405.453125 " fill-opacity="1" fill-rule="nonzero"/></g><g fill="#000000" fill-opacity="1"><g transform="translate(694.804941, 362.63204)"><g><path d="M 44.5625 -119.71875 C 63.34375 -119.71875 78.40625 -115.484375 89.75 -107.015625 C 101.09375 -98.554688 106.765625 -83.039062 106.765625 -60.46875 C 106.765625 -38.238281 101.234375 -22.601562 90.171875 -13.5625 C 79.117188 -4.519531 64.78125 0 47.15625 0 L 11.234375 0 L 11.234375 -119.71875 Z M 39.5625 -99.15625 L 39.5625 -20.5625 L 48.890625 -20.5625 C 58.210938 -20.5625 65.289062 -23.46875 70.125 -29.28125 C 74.96875 -35.09375 77.390625 -45.488281 77.390625 -60.46875 C 77.390625 -70.71875 76.179688 -78.660156 73.765625 -84.296875 C 71.347656 -89.941406 68.066406 -93.828125 63.921875 -95.953125 C 59.773438 -98.085938 54.648438 -99.15625 48.546875 -99.15625 Z M 39.5625 -99.15625 "/></g></g></g><g fill="#000000" fill-opacity="1"><g transform="translate(807.258171, 362.63204)"><g><path d="M 74.28125 0 L 68.0625 -25.734375 L 33.171875 -25.734375 L 27.125 0 L -2.25 0 L 33.859375 -119.71875 L 68.234375 -119.71875 L 104.34375 0 Z M 38 -46.296875 L 63.21875 -46.296875 L 50.609375 -99.15625 Z M 38 -46.296875 "/></g></g></g><g fill="#000000" fill-opacity="1"><g transform="translate(909.174301, 362.63204)"><g><path d="M 11.234375 0 L 11.234375 -119.71875 L 82.578125 -119.71875 L 79.640625 -99.5 L 39.5625 -99.5 L 39.5625 -67.71875 L 74.453125 -67.71875 L 74.453125 -47.5 L 39.5625 -47.5 L 39.5625 0 Z M 11.234375 0 "/></g></g></g><g fill="#000000" fill-opacity="1"><g transform="translate(993.298298, 362.63204)"><g><path d="M 74.28125 0 L 68.0625 -25.734375 L 33.171875 -25.734375 L 27.125 0 L -2.25 0 L 33.859375 -119.71875 L 68.234375 -119.71875 L 104.34375 0 Z M 38 -46.296875 L 63.21875 -46.296875 L 50.609375 -99.15625 Z M 38 -46.296875 "/></g></g></g><g fill="#000000" fill-opacity="1"><g transform="translate(1095.214428, 362.63204)"><g><path d="M 60.109375 -122.65625 C 67.597656 -122.65625 74.25 -121.5625 80.0625 -119.375 C 85.882812 -117.1875 91.382812 -113.90625 96.5625 -109.53125 L 83.09375 -93.453125 C 79.519531 -96.222656 76.003906 -98.296875 72.546875 -99.671875 C 69.097656 -101.054688 65.414062 -101.75 61.5 -101.75 C 53.4375 -101.75 47.070312 -98.347656 42.40625 -91.546875 C 37.738281 -84.753906 35.40625 -74.273438 35.40625 -60.109375 C 35.40625 -46.179688 37.738281 -35.847656 42.40625 -29.109375 C 47.070312 -22.367188 53.550781 -19 61.84375 -19 C 66.21875 -19 70.191406 -19.832031 73.765625 -21.5 C 77.335938 -23.175781 81.195312 -25.566406 85.34375 -28.671875 L 97.953125 -12.4375 C 93.460938 -7.945312 88.019531 -4.257812 81.625 -1.375 C 75.226562 1.5 68.175781 2.9375 60.46875 2.9375 C 49.40625 2.9375 39.785156 0.519531 31.609375 -4.3125 C 23.429688 -9.15625 17.066406 -16.328125 12.515625 -25.828125 C 7.972656 -35.328125 5.703125 -46.753906 5.703125 -60.109375 C 5.703125 -73.128906 8.03125 -84.359375 12.6875 -93.796875 C 17.351562 -103.242188 23.800781 -110.414062 32.03125 -115.3125 C 40.269531 -120.207031 49.628906 -122.65625 60.109375 -122.65625 Z M 60.109375 -122.65625 "/></g></g></g><g fill="#000000" fill-opacity="1"><g transform="translate(1194.539504, 362.63204)"><g><path d="M 39.5625 -119.71875 L 39.5625 0 L 11.234375 0 L 11.234375 -119.71875 Z M 39.5625 -119.71875 "/></g></g></g><g fill="#000000" fill-opacity="1"><g transform="translate(692.155006, 532.028158)"><g><path d="M 20.71875 -19.3125 L 14.859375 -19.3125 L 14.859375 0 L 5.65625 0 L 5.65625 -48.1875 L 20.015625 -48.1875 C 32.753906 -48.1875 39.125 -43.46875 39.125 -34.03125 C 39.125 -30.820312 38.332031 -28.171875 36.75 -26.078125 C 35.164062 -23.984375 32.703125 -22.285156 29.359375 -20.984375 L 41.984375 0 L 31.375 0 Z M 14.859375 -25.9375 L 20.578125 -25.9375 C 23.503906 -25.9375 25.722656 -26.578125 27.234375 -27.859375 C 28.742188 -29.140625 29.5 -31.195312 29.5 -34.03125 C 29.5 -36.632812 28.71875 -38.523438 27.15625 -39.703125 C 25.601562 -40.890625 23.148438 -41.484375 19.796875 -41.484375 L 14.859375 -41.484375 Z M 14.859375 -25.9375 "/></g></g></g><g fill="#000000" fill-opacity="1"><g transform="translate(734.758769, 532.028158)"><g><path d="M 35.640625 -19.3125 C 35.640625 -18.851562 35.566406 -17.644531 35.421875 -15.6875 L 12.265625 -15.6875 C 12.546875 -12.113281 13.476562 -9.554688 15.0625 -8.015625 C 16.644531 -6.484375 18.738281 -5.71875 21.34375 -5.71875 C 22.96875 -5.71875 24.5 -5.984375 25.9375 -6.515625 C 27.382812 -7.054688 28.921875 -7.882812 30.546875 -9 L 34.234375 -3.90625 C 30.148438 -0.601562 25.597656 1.046875 20.578125 1.046875 C 14.953125 1.046875 10.613281 -0.671875 7.5625 -4.109375 C 4.519531 -7.554688 3 -12.253906 3 -18.203125 C 3 -21.960938 3.648438 -25.34375 4.953125 -28.34375 C 6.253906 -31.34375 8.132812 -33.691406 10.59375 -35.390625 C 13.0625 -37.085938 15.992188 -37.9375 19.390625 -37.9375 C 24.546875 -37.9375 28.539062 -36.296875 31.375 -33.015625 C 34.21875 -29.742188 35.640625 -25.175781 35.640625 -19.3125 Z M 26.78125 -21.890625 C 26.78125 -28.359375 24.382812 -31.59375 19.59375 -31.59375 C 17.40625 -31.59375 15.695312 -30.789062 14.46875 -29.1875 C 13.238281 -27.582031 12.503906 -25.015625 12.265625 -21.484375 L 26.78125 -21.484375 Z M 26.78125 -21.890625 "/></g></g></g><g fill="#000000" fill-opacity="1"><g transform="translate(773.039407, 532.028158)"><g><path d="M 24.484375 -37.9375 C 29.128906 -37.9375 32.566406 -36.238281 34.796875 -32.84375 C 37.023438 -29.445312 38.140625 -24.679688 38.140625 -18.546875 C 38.140625 -14.734375 37.570312 -11.347656 36.4375 -8.390625 C 35.300781 -5.441406 33.628906 -3.128906 31.421875 -1.453125 C 29.210938 0.210938 26.59375 1.046875 23.5625 1.046875 C 19.664062 1.046875 16.578125 -0.300781 14.296875 -3 L 14.296875 14.21875 L 5.375 15.203125 L 5.375 -36.890625 L 13.1875 -36.890625 L 13.671875 -32.359375 C 15.109375 -34.210938 16.753906 -35.601562 18.609375 -36.53125 C 20.472656 -37.46875 22.429688 -37.9375 24.484375 -37.9375 Z M 21.0625 -5.78125 C 26.21875 -5.78125 28.796875 -10.015625 28.796875 -18.484375 C 28.796875 -22.992188 28.210938 -26.242188 27.046875 -28.234375 C 25.890625 -30.234375 24.148438 -31.234375 21.828125 -31.234375 C 20.335938 -31.234375 18.941406 -30.78125 17.640625 -29.875 C 16.335938 -28.96875 15.222656 -27.75 14.296875 -26.21875 L 14.296875 -9.625 C 16.015625 -7.0625 18.269531 -5.78125 21.0625 -5.78125 Z M 21.0625 -5.78125 "/></g></g></g><g fill="#000000" fill-opacity="1"><g transform="translate(814.597254, 532.028158)"><g><path d="M 20.4375 -37.9375 C 25.875 -37.9375 30.113281 -36.203125 33.15625 -32.734375 C 36.195312 -29.273438 37.71875 -24.523438 37.71875 -18.484375 C 37.71875 -14.617188 37.019531 -11.207031 35.625 -8.25 C 34.238281 -5.300781 32.242188 -3.015625 29.640625 -1.390625 C 27.035156 0.234375 23.941406 1.046875 20.359375 1.046875 C 14.921875 1.046875 10.664062 -0.679688 7.59375 -4.140625 C 4.53125 -7.609375 3 -12.390625 3 -18.484375 C 3 -22.335938 3.695312 -25.726562 5.09375 -28.65625 C 6.488281 -31.582031 8.5 -33.859375 11.125 -35.484375 C 13.75 -37.117188 16.851562 -37.9375 20.4375 -37.9375 Z M 20.4375 -31.171875 C 15.082031 -31.171875 12.40625 -26.941406 12.40625 -18.484375 C 12.40625 -14.109375 13.066406 -10.882812 14.390625 -8.8125 C 15.722656 -6.75 17.710938 -5.71875 20.359375 -5.71875 C 23.015625 -5.71875 25.003906 -6.765625 26.328125 -8.859375 C 27.648438 -10.953125 28.3125 -14.160156 28.3125 -18.484375 C 28.3125 -22.804688 27.648438 -26 26.328125 -28.0625 C 25.003906 -30.132812 23.039062 -31.171875 20.4375 -31.171875 Z M 20.4375 -31.171875 "/></g></g></g><g fill="#000000" fill-opacity="1"><g transform="translate(855.318377, 532.028158)"><g><path d="M 23.5625 -37.859375 C 24.914062 -37.859375 26.148438 -37.695312 27.265625 -37.375 L 25.734375 -28.734375 C 24.617188 -29.015625 23.523438 -29.15625 22.453125 -29.15625 C 20.265625 -29.15625 18.539062 -28.375 17.28125 -26.8125 C 16.03125 -25.257812 15.035156 -22.878906 14.296875 -19.671875 L 14.296875 0 L 5.375 0 L 5.375 -36.890625 L 13.109375 -36.890625 L 13.953125 -29.640625 C 14.828125 -32.285156 16.101562 -34.316406 17.78125 -35.734375 C 19.457031 -37.148438 21.382812 -37.859375 23.5625 -37.859375 Z M 23.5625 -37.859375 "/></g></g></g><g fill="#000000" fill-opacity="1"><g transform="translate(882.79116, 532.028158)"><g><path d="M 26.5 -1.75 C 25.195312 -0.8125 23.742188 -0.113281 22.140625 0.34375 C 20.535156 0.8125 18.894531 1.046875 17.21875 1.046875 C 13.59375 0.992188 10.835938 -0.0390625 8.953125 -2.0625 C 7.078125 -4.082031 6.140625 -7.066406 6.140625 -11.015625 L 6.140625 -30.46875 L 0.34375 -30.46875 L 0.34375 -36.890625 L 6.140625 -36.890625 L 6.140625 -45.046875 L 15.0625 -46.09375 L 15.0625 -36.890625 L 23.640625 -36.890625 L 22.734375 -30.46875 L 15.0625 -30.46875 L 15.0625 -11.234375 C 15.0625 -9.410156 15.375 -8.101562 16 -7.3125 C 16.632812 -6.53125 17.625 -6.140625 18.96875 -6.140625 C 20.3125 -6.140625 21.773438 -6.582031 23.359375 -7.46875 Z M 26.5 -1.75 "/></g></g></g><g fill="#000000" fill-opacity="1"><g transform="translate(908.939145, 532.028158)"><g><path d="M 35.640625 -19.3125 C 35.640625 -18.851562 35.566406 -17.644531 35.421875 -15.6875 L 12.265625 -15.6875 C 12.546875 -12.113281 13.476562 -9.554688 15.0625 -8.015625 C 16.644531 -6.484375 18.738281 -5.71875 21.34375 -5.71875 C 22.96875 -5.71875 24.5 -5.984375 25.9375 -6.515625 C 27.382812 -7.054688 28.921875 -7.882812 30.546875 -9 L 34.234375 -3.90625 C 30.148438 -0.601562 25.597656 1.046875 20.578125 1.046875 C 14.953125 1.046875 10.613281 -0.671875 7.5625 -4.109375 C 4.519531 -7.554688 3 -12.253906 3 -18.203125 C 3 -21.960938 3.648438 -25.34375 4.953125 -28.34375 C 6.253906 -31.34375 8.132812 -33.691406 10.59375 -35.390625 C 13.0625 -37.085938 15.992188 -37.9375 19.390625 -37.9375 C 24.546875 -37.9375 28.539062 -36.296875 31.375 -33.015625 C 34.21875 -29.742188 35.640625 -25.175781 35.640625 -19.3125 Z M 26.78125 -21.890625 C 26.78125 -28.359375 24.382812 -31.59375 19.59375 -31.59375 C 17.40625 -31.59375 15.695312 -30.789062 14.46875 -29.1875 C 13.238281 -27.582031 12.503906 -25.015625 12.265625 -21.484375 L 26.78125 -21.484375 Z M 26.78125 -21.890625 "/></g></g></g><g fill="#000000" fill-opacity="1"><g transform="translate(947.219783, 532.028158)"><g/></g></g><g fill="#000000" fill-opacity="1"><g transform="translate(964.651747, 532.028158)"><g><path d="M 36.40625 -51.671875 L 36.40625 0 L 28.515625 0 L 27.890625 -4.671875 C 26.734375 -2.898438 25.257812 -1.503906 23.46875 -0.484375 C 21.675781 0.535156 19.640625 1.046875 17.359375 1.046875 C 12.847656 1.046875 9.382812 -0.695312 6.96875 -4.1875 C 4.550781 -7.675781 3.34375 -12.414062 3.34375 -18.40625 C 3.34375 -22.175781 3.945312 -25.535156 5.15625 -28.484375 C 6.363281 -31.441406 8.09375 -33.753906 10.34375 -35.421875 C 12.601562 -37.097656 15.222656 -37.9375 18.203125 -37.9375 C 21.734375 -37.9375 24.820312 -36.609375 27.46875 -33.953125 L 27.46875 -52.65625 Z M 19.875 -5.71875 C 21.457031 -5.71875 22.851562 -6.097656 24.0625 -6.859375 C 25.269531 -7.628906 26.40625 -8.828125 27.46875 -10.453125 L 27.46875 -27.328125 C 26.40625 -28.628906 25.328125 -29.601562 24.234375 -30.25 C 23.140625 -30.90625 21.875 -31.234375 20.4375 -31.234375 C 18.0625 -31.234375 16.1875 -30.175781 14.8125 -28.0625 C 13.445312 -25.945312 12.765625 -22.753906 12.765625 -18.484375 C 12.765625 -13.921875 13.367188 -10.648438 14.578125 -8.671875 C 15.785156 -6.703125 17.550781 -5.71875 19.875 -5.71875 Z M 19.875 -5.71875 "/></g></g></g><g fill="#000000" fill-opacity="1"><g transform="translate(1006.418785, 532.028158)"><g><path d="M 35.640625 -19.3125 C 35.640625 -18.851562 35.566406 -17.644531 35.421875 -15.6875 L 12.265625 -15.6875 C 12.546875 -12.113281 13.476562 -9.554688 15.0625 -8.015625 C 16.644531 -6.484375 18.738281 -5.71875 21.34375 -5.71875 C 22.96875 -5.71875 24.5 -5.984375 25.9375 -6.515625 C 27.382812 -7.054688 28.921875 -7.882812 30.546875 -9 L 34.234375 -3.90625 C 30.148438 -0.601562 25.597656 1.046875 20.578125 1.046875 C 14.953125 1.046875 10.613281 -0.671875 7.5625 -4.109375 C 4.519531 -7.554688 3 -12.253906 3 -18.203125 C 3 -21.960938 3.648438 -25.34375 4.953125 -28.34375 C 6.253906 -31.34375 8.132812 -33.691406 10.59375 -35.390625 C 13.0625 -37.085938 15.992188 -37.9375 19.390625 -37.9375 C 24.546875 -37.9375 28.539062 -36.296875 31.375 -33.015625 C 34.21875 -29.742188 35.640625 -25.175781 35.640625 -19.3125 Z M 26.78125 -21.890625 C 26.78125 -28.359375 24.382812 -31.59375 19.59375 -31.59375 C 17.40625 -31.59375 15.695312 -30.789062 14.46875 -29.1875 C 13.238281 -27.582031 12.503906 -25.015625 12.265625 -21.484375 L 26.78125 -21.484375 Z M 26.78125 -21.890625 "/></g></g></g><g fill="#000000" fill-opacity="1"><g transform="translate(1044.699423, 532.028158)"><g/></g></g><g fill="#000000" fill-opacity="1"><g transform="translate(1062.131387, 532.028158)"><g><path d="M 14.859375 -48.1875 L 14.859375 0 L 5.65625 0 L 5.65625 -48.1875 Z M 14.859375 -48.1875 "/></g></g></g><g fill="#000000" fill-opacity="1"><g transform="translate(1082.631409, 532.028158)"><g><path d="M 25.03125 -37.9375 C 28.332031 -37.9375 30.898438 -36.945312 32.734375 -34.96875 C 34.578125 -33 35.5 -30.242188 35.5 -26.703125 L 35.5 0 L 26.5625 0 L 26.5625 -25.3125 C 26.5625 -27.5 26.175781 -29.03125 25.40625 -29.90625 C 24.644531 -30.789062 23.519531 -31.234375 22.03125 -31.234375 C 20.5 -31.234375 19.113281 -30.753906 17.875 -29.796875 C 16.644531 -28.847656 15.453125 -27.46875 14.296875 -25.65625 L 14.296875 0 L 5.375 0 L 5.375 -36.890625 L 13.109375 -36.890625 L 13.8125 -32.078125 C 16.832031 -35.984375 20.570312 -37.9375 25.03125 -37.9375 Z M 25.03125 -37.9375 "/></g></g></g><g fill="#000000" fill-opacity="1"><g transform="translate(1123.14334, 532.028158)"><g><path d="M 20.21875 -37.9375 C 22.632812 -37.9375 24.804688 -37.585938 26.734375 -36.890625 C 28.671875 -36.191406 30.5 -35.097656 32.21875 -33.609375 L 28.25 -28.25 C 26.988281 -29.175781 25.773438 -29.847656 24.609375 -30.265625 C 23.453125 -30.679688 22.175781 -30.890625 20.78125 -30.890625 C 15.25 -30.890625 12.484375 -26.679688 12.484375 -18.265625 C 12.484375 -13.992188 13.203125 -10.914062 14.640625 -9.03125 C 16.085938 -7.144531 18.132812 -6.203125 20.78125 -6.203125 C 22.082031 -6.203125 23.28125 -6.410156 24.375 -6.828125 C 25.46875 -7.253906 26.757812 -7.929688 28.25 -8.859375 L 32.21875 -3.203125 C 28.726562 -0.367188 24.753906 1.046875 20.296875 1.046875 C 16.765625 1.046875 13.695312 0.269531 11.09375 -1.28125 C 8.488281 -2.84375 6.488281 -5.0625 5.09375 -7.9375 C 3.695312 -10.820312 3 -14.21875 3 -18.125 C 3 -22.03125 3.695312 -25.484375 5.09375 -28.484375 C 6.488281 -31.484375 8.488281 -33.804688 11.09375 -35.453125 C 13.695312 -37.109375 16.738281 -37.9375 20.21875 -37.9375 Z M 20.21875 -37.9375 "/></g></g></g><g fill="#000000" fill-opacity="1"><g transform="translate(1156.473278, 532.028158)"><g><path d="M 14.296875 -36.890625 L 14.296875 0 L 5.375 0 L 5.375 -36.890625 Z M 9.765625 -55.578125 C 11.429688 -55.578125 12.785156 -55.050781 13.828125 -54 C 14.878906 -52.957031 15.40625 -51.671875 15.40625 -50.140625 C 15.40625 -48.609375 14.878906 -47.328125 13.828125 -46.296875 C 12.785156 -45.273438 11.429688 -44.765625 9.765625 -44.765625 C 8.128906 -44.765625 6.789062 -45.273438 5.75 -46.296875 C 4.707031 -47.328125 4.1875 -48.609375 4.1875 -50.140625 C 4.1875 -51.671875 4.707031 -52.957031 5.75 -54 C 6.789062 -55.050781 8.128906 -55.578125 9.765625 -55.578125 Z M 9.765625 -55.578125 "/></g></g></g><g fill="#000000" fill-opacity="1"><g transform="translate(1176.136535, 532.028158)"><g><path d="M 36.40625 -51.671875 L 36.40625 0 L 28.515625 0 L 27.890625 -4.671875 C 26.734375 -2.898438 25.257812 -1.503906 23.46875 -0.484375 C 21.675781 0.535156 19.640625 1.046875 17.359375 1.046875 C 12.847656 1.046875 9.382812 -0.695312 6.96875 -4.1875 C 4.550781 -7.675781 3.34375 -12.414062 3.34375 -18.40625 C 3.34375 -22.175781 3.945312 -25.535156 5.15625 -28.484375 C 6.363281 -31.441406 8.09375 -33.753906 10.34375 -35.421875 C 12.601562 -37.097656 15.222656 -37.9375 18.203125 -37.9375 C 21.734375 -37.9375 24.820312 -36.609375 27.46875 -33.953125 L 27.46875 -52.65625 Z M 19.875 -5.71875 C 21.457031 -5.71875 22.851562 -6.097656 24.0625 -6.859375 C 25.269531 -7.628906 26.40625 -8.828125 27.46875 -10.453125 L 27.46875 -27.328125 C 26.40625 -28.628906 25.328125 -29.601562 24.234375 -30.25 C 23.140625 -30.90625 21.875 -31.234375 20.4375 -31.234375 C 18.0625 -31.234375 16.1875 -30.175781 14.8125 -28.0625 C 13.445312 -25.945312 12.765625 -22.753906 12.765625 -18.484375 C 12.765625 -13.921875 13.367188 -10.648438 14.578125 -8.671875 C 15.785156 -6.703125 17.550781 -5.71875 19.875 -5.71875 Z M 19.875 -5.71875 "/></g></g></g><g fill="#000000" fill-opacity="1"><g transform="translate(1217.903573, 532.028158)"><g><path d="M 35.640625 -19.3125 C 35.640625 -18.851562 35.566406 -17.644531 35.421875 -15.6875 L 12.265625 -15.6875 C 12.546875 -12.113281 13.476562 -9.554688 15.0625 -8.015625 C 16.644531 -6.484375 18.738281 -5.71875 21.34375 -5.71875 C 22.96875 -5.71875 24.5 -5.984375 25.9375 -6.515625 C 27.382812 -7.054688 28.921875 -7.882812 30.546875 -9 L 34.234375 -3.90625 C 30.148438 -0.601562 25.597656 1.046875 20.578125 1.046875 C 14.953125 1.046875 10.613281 -0.671875 7.5625 -4.109375 C 4.519531 -7.554688 3 -12.253906 3 -18.203125 C 3 -21.960938 3.648438 -25.34375 4.953125 -28.34375 C 6.253906 -31.34375 8.132812 -33.691406 10.59375 -35.390625 C 13.0625 -37.085938 15.992188 -37.9375 19.390625 -37.9375 C 24.546875 -37.9375 28.539062 -36.296875 31.375 -33.015625 C 34.21875 -29.742188 35.640625 -25.175781 35.640625 -19.3125 Z M 26.78125 -21.890625 C 26.78125 -28.359375 24.382812 -31.59375 19.59375 -31.59375 C 17.40625 -31.59375 15.695312 -30.789062 14.46875 -29.1875 C 13.238281 -27.582031 12.503906 -25.015625 12.265625 -21.484375 L 26.78125 -21.484375 Z M 26.78125 -21.890625 "/></g></g></g><g fill="#000000" fill-opacity="1"><g transform="translate(1256.184211, 532.028158)"><g><path d="M 25.03125 -37.9375 C 28.332031 -37.9375 30.898438 -36.945312 32.734375 -34.96875 C 34.578125 -33 35.5 -30.242188 35.5 -26.703125 L 35.5 0 L 26.5625 0 L 26.5625 -25.3125 C 26.5625 -27.5 26.175781 -29.03125 25.40625 -29.90625 C 24.644531 -30.789062 23.519531 -31.234375 22.03125 -31.234375 C 20.5 -31.234375 19.113281 -30.753906 17.875 -29.796875 C 16.644531 -28.847656 15.453125 -27.46875 14.296875 -25.65625 L 14.296875 0 L 5.375 0 L 5.375 -36.890625 L 13.109375 -36.890625 L 13.8125 -32.078125 C 16.832031 -35.984375 20.570312 -37.9375 25.03125 -37.9375 Z M 25.03125 -37.9375 "/></g></g></g><g fill="#000000" fill-opacity="1"><g transform="translate(1296.696142, 532.028158)"><g><path d="M 26.5 -1.75 C 25.195312 -0.8125 23.742188 -0.113281 22.140625 0.34375 C 20.535156 0.8125 18.894531 1.046875 17.21875 1.046875 C 13.59375 0.992188 10.835938 -0.0390625 8.953125 -2.0625 C 7.078125 -4.082031 6.140625 -7.066406 6.140625 -11.015625 L 6.140625 -30.46875 L 0.34375 -30.46875 L 0.34375 -36.890625 L 6.140625 -36.890625 L 6.140625 -45.046875 L 15.0625 -46.09375 L 15.0625 -36.890625 L 23.640625 -36.890625 L 22.734375 -30.46875 L 15.0625 -30.46875 L 15.0625 -11.234375 C 15.0625 -9.410156 15.375 -8.101562 16 -7.3125 C 16.632812 -6.53125 17.625 -6.140625 18.96875 -6.140625 C 20.3125 -6.140625 21.773438 -6.582031 23.359375 -7.46875 Z M 26.5 -1.75 "/></g></g></g><g fill="#000000" fill-opacity="1"><g transform="translate(1322.844128, 532.028158)"><g><path d="M 35.640625 -19.3125 C 35.640625 -18.851562 35.566406 -17.644531 35.421875 -15.6875 L 12.265625 -15.6875 C 12.546875 -12.113281 13.476562 -9.554688 15.0625 -8.015625 C 16.644531 -6.484375 18.738281 -5.71875 21.34375 -5.71875 C 22.96875 -5.71875 24.5 -5.984375 25.9375 -6.515625 C 27.382812 -7.054688 28.921875 -7.882812 30.546875 -9 L 34.234375 -3.90625 C 30.148438 -0.601562 25.597656 1.046875 20.578125 1.046875 C 14.953125 1.046875 10.613281 -0.671875 7.5625 -4.109375 C 4.519531 -7.554688 3 -12.253906 3 -18.203125 C 3 -21.960938 3.648438 -25.34375 4.953125 -28.34375 C 6.253906 -31.34375 8.132812 -33.691406 10.59375 -35.390625 C 13.0625 -37.085938 15.992188 -37.9375 19.390625 -37.9375 C 24.546875 -37.9375 28.539062 -36.296875 31.375 -33.015625 C 34.21875 -29.742188 35.640625 -25.175781 35.640625 -19.3125 Z M 26.78125 -21.890625 C 26.78125 -28.359375 24.382812 -31.59375 19.59375 -31.59375 C 17.40625 -31.59375 15.695312 -30.789062 14.46875 -29.1875 C 13.238281 -27.582031 12.503906 -25.015625 12.265625 -21.484375 L 26.78125 -21.484375 Z M 26.78125 -21.890625 "/></g></g></g><g fill="#000000" fill-opacity="1"><g transform="translate(1361.124765, 532.028158)"><g><path d="M 17.015625 -37.9375 C 21.992188 -37.9375 26.363281 -36.472656 30.125 -33.546875 L 26.640625 -28.3125 C 23.472656 -30.3125 20.378906 -31.3125 17.359375 -31.3125 C 15.597656 -31.3125 14.226562 -30.972656 13.25 -30.296875 C 12.269531 -29.617188 11.78125 -28.722656 11.78125 -27.609375 C 11.78125 -26.773438 11.988281 -26.078125 12.40625 -25.515625 C 12.832031 -24.960938 13.585938 -24.441406 14.671875 -23.953125 C 15.765625 -23.460938 17.382812 -22.914062 19.53125 -22.3125 C 23.519531 -21.25 26.476562 -19.832031 28.40625 -18.0625 C 30.34375 -16.289062 31.3125 -13.828125 31.3125 -10.671875 C 31.3125 -6.992188 29.820312 -4.117188 26.84375 -2.046875 C 23.875 0.015625 20.179688 1.046875 15.765625 1.046875 C 12.742188 1.046875 9.988281 0.582031 7.5 -0.34375 C 5.007812 -1.28125 2.859375 -2.5625 1.046875 -4.1875 L 5.515625 -9.203125 C 8.722656 -6.785156 12.066406 -5.578125 15.546875 -5.578125 C 17.546875 -5.578125 19.140625 -5.972656 20.328125 -6.765625 C 21.515625 -7.554688 22.109375 -8.648438 22.109375 -10.046875 C 22.109375 -11.109375 21.882812 -11.953125 21.4375 -12.578125 C 21 -13.210938 20.207031 -13.773438 19.0625 -14.265625 C 17.925781 -14.753906 16.148438 -15.34375 13.734375 -16.03125 C 9.972656 -17.0625 7.207031 -18.492188 5.4375 -20.328125 C 3.675781 -22.160156 2.796875 -24.453125 2.796875 -27.203125 C 2.796875 -29.242188 3.382812 -31.078125 4.5625 -32.703125 C 5.75 -34.328125 7.421875 -35.601562 9.578125 -36.53125 C 11.742188 -37.46875 14.222656 -37.9375 17.015625 -37.9375 Z M 17.015625 -37.9375 "/></g></g></g></svg>