<svg xmlns="http://www.w3.org/2000/svg" xmlns:xlink="http://www.w3.org/1999/xlink" width="1920" zoomAndPan="magnify" viewBox="0 0 1440 809.999993" height="1080" preserveAspectRatio="xMidYMid meet" version="1.0"><defs><clipPath id="34e52170e3"><path d="M 21.808594 400.140625 L 495 400.140625 L 495 809.972656 L 21.808594 809.972656 Z M 21.808594 400.140625 " clip-rule="nonzero"/></clipPath><clipPath id="5f7bc2adb0"><path d="M 258 0 L 967.496094 0 L 967.496094 809.972656 L 258 809.972656 Z M 258 0 " clip-rule="nonzero"/></clipPath><clipPath id="83c3f0b41a"><path d="M 730 0 L 1439.894531 0 L 1439.894531 809.972656 L 730 809.972656 Z M 730 0 " clip-rule="nonzero"/></clipPath></defs><rect x="-144" width="1728" fill="#ffffff" y="-80.999999" height="971.999992" fill-opacity="1"/><rect x="-144" width="1728" fill="#ffffff" y="-80.999999" height="971.999992" fill-opacity="1"/><rect x="-144" width="1728" fill="#ffffff" y="-80.999999" height="971.999992" fill-opacity="1"/><g clip-path="url(#34e52170e3)"><path fill="#86c7ed" d="M 376.339844 400.585938 L 140.140625 400.585938 L 21.808594 605.496094 L 140.140625 809.972656 L 376.339844 809.972656 L 494.652344 605.496094 L 376.339844 400.585938 " fill-opacity="1" fill-rule="nonzero"/></g><g clip-path="url(#5f7bc2adb0)"><path fill="#a066cb" d="M 892.6875 476.234375 L 892.722656 476.21875 L 884.75 462.425781 L 849.183594 400.585938 L 849.011719 400.585938 L 689.941406 125.304688 L 689.90625 125.339844 L 612.535156 -8.371094 L 376.339844 -8.371094 L 258.007812 196.109375 L 337.644531 333.734375 L 337.628906 333.734375 L 532.554688 671.265625 L 612.535156 809.972656 L 849.183594 809.972656 L 967.050781 605.496094 L 892.6875 476.234375 " fill-opacity="1" fill-rule="nonzero"/></g><g clip-path="url(#83c3f0b41a)"><path fill="#1836b2" d="M 1359.519531 466.289062 L 1359.84375 466.101562 L 1157.511719 115.1875 L 1157.046875 115.476562 L 1085.382812 -8.371094 L 849.183594 -8.371094 L 730.851562 196.109375 L 849.183594 400.585938 L 849.25 400.585938 L 967.410156 604.894531 L 967.050781 605.496094 L 1085.382812 809.972656 L 1321.582031 809.972656 L 1439.894531 605.496094 L 1359.519531 466.289062 " fill-opacity="1" fill-rule="nonzero"/></g></svg>